<svg version="1.1" id="Layer_1" xmlns="http://www.w3.org/2000/svg" xmlns:xlink="http://www.w3.org/1999/xlink" x="0px" y="0px" viewBox="0 0 199.2 72.5" style="enable-background:new 0 0 199.2 72.5;" xml:space="preserve">
 <style type="text/css">
  .st0{fill:#101510}
 </style>
 <g>
  <path class="st0" d="M18.1,39.8H24c3.4,0,5.4-0.8,5.4-4.1c0-3-2.1-4.1-5.4-4.1h-5.9V39.8z M18.1,19.3h5.2c3.4,0,5.4-0.8,5.4-4.1
		c0-3-2.1-4.1-5.4-4.1h-5.2V19.3z M45.3,6.1c2.5,3.4,2.7,8.3,1.7,11.3c-1.6,4.7-4.2,6.3-8.8,7.8c3.7,1.2,6.5,2.3,9.1,6.6
		c2,3.5,2,8.9,0.1,12.2c-3.8,6.7-14.6,6.7-18,6.7H0V0h28.3C33,0,41.2,0.4,45.3,6.1">
  </path>
  <path class="st0" d="M79.5,24.5L75,34.1h9.1L79.5,24.5z M67.1,50.8H47.6L78.7,0h1.7l31.1,50.7H92l-2.9-6.1H70L67.1,50.8z">
  </path>
  <polygon class="st0" points="119,0.1 143.8,19.9 169.9,0 171.2,0 172.8,50.8 155.6,50.8 154.6,32.4 143.7,40.8 131.9,32 
		131.2,50.8 115.3,50.8 117.5,0.1 	">
  </polygon>
  <path class="st0" d="M5.1,68.9h1.7c0.9,0,1.5-0.2,1.5-1.2c0-0.9-0.6-1.2-1.5-1.2H5.1V68.9z M5.1,63.1h1.5c1,0,1.5-0.2,1.5-1.2
		c0-0.9-0.6-1.2-1.5-1.2H5.1V63.1z M12.8,59.3c0.7,0.9,0.8,2.4,0.5,3.2c-0.5,1.3-1.2,1.8-2.5,2.2c1,0.3,1.8,0.7,2.6,1.9
		c0.6,1,0.6,2.5,0,3.4C12.3,72,9.3,72,8.3,72H0V57.6h8C9.3,57.6,11.6,57.7,12.8,59.3">
  </path>
  <path class="st0" d="M23.2,68c1.7,0,3-1.4,3-3c0-1.6-1.3-3-3.1-3c-1.8,0-3.1,1.4-3.1,3C20,66.6,21.3,68,23.2,68 M14.8,65
		c0-4.2,3.6-7.6,8.3-7.6c4.8,0,8.3,3.4,8.3,7.6c0,4.2-3.5,7.6-8.3,7.6C18.4,72.5,14.8,69.1,14.8,65">
  </path>
  <path class="st0" d="M40.9,68c1.7,0,3-1.4,3-3c0-1.6-1.3-3-3.1-3c-1.8,0-3.1,1.4-3.1,3C37.8,66.6,39.1,68,40.9,68 M32.6,65
		c0-4.2,3.6-7.6,8.3-7.6c4.7,0,8.3,3.4,8.3,7.6c0,4.2-3.5,7.6-8.3,7.6C36.2,72.5,32.6,69.1,32.6,65">
  </path>
  <path class="st0" d="M82.4,67.3c1.2,0,2.2-1,2.2-2.2c0-1.2-0.9-2.2-2.2-2.2c-1.3,0-2.2,1-2.2,2.2C80.1,66.3,81.1,67.3,82.4,67.3">
  </path>
  <path class="st0" d="M102.1,67.3c1.2,0,2.2-1,2.2-2.2c0-1.2-0.9-2.2-2.2-2.2c-1.3,0-2.2,1-2.2,2.2C99.9,66.3,100.8,67.3,102.1,67.3
		">
  </path>
  <polygon class="st0" points="55.8,57.6 55.8,63.6 59.8,57.6 65.3,57.6 60.9,64.2 66,72 59.9,72 55.8,65.9 55.8,72 50.7,72 
		50.7,57.6 	">
  </polygon>
  <path class="st0" d="M74.5,61.9c-0.4-0.9-0.7-1.3-1.7-1.4c-0.4-0.1-1.2,0-1.6,0.5c-0.2,0.3-0.2,0.6-0.1,0.9
		c0.3,0.8,1.6,0.7,2.3,0.8c1.4,0.1,3.5,0.4,4.5,2.2c0.7,1.2,0.7,3.2,0,4.5c-1.1,2.1-3.3,2.9-5,3.1c-1.3,0.2-4.3,0-5.9-1.8
		c-0.3-0.3-0.6-0.8-0.9-1.6l3.7-1.3c0.6,1,1.2,1.5,2.2,1.5c0.5,0,1.1-0.1,1.5-0.6c0.2-0.2,0.2-0.6,0-0.9C73.1,67,72.1,67,71.3,67
		c-1.2-0.1-3.4-0.5-4.4-2.3c-0.8-1.4-0.8-3.1,0-4.6c1-1.9,2.8-2.5,4.4-2.8c1.3-0.2,4.2-0.2,5.8,1.4c0.5,0.5,0.7,1.1,0.9,1.8
		L74.5,61.9z">
  </path>
  <path class="st0" d="M92.5,64.5l-1.3,2.8h2.6L92.5,64.5z M88.9,72.1h-5.7l9-14.7h0.5l9,14.7h-5.7l-0.8-1.8h-5.5L88.9,72.1z">
  </path>
  <polygon class="st0" points="107.4,57.4 114.5,63.1 122,57.4 122.4,57.4 122.8,72 117.9,72 117.6,66.7 114.5,69.1 111.1,66.6 
		110.9,72 106.3,72 107,57.4 	">
  </polygon>
  <rect x="125.2" y="57.6" class="st0" width="5.1" height="14.4">
  </rect>
  <polygon class="st0" points="138.3,57.6 138.3,68.7 142.8,68.7 142.8,72 133.2,72 133.2,57.6 	">
  </polygon>
  <polygon class="st0" points="150,57.6 150,68.7 154.5,68.7 154.5,72 144.9,72 144.9,57.6 	">
  </polygon>
  <rect x="156.1" y="57.6" class="st0" width="5.1" height="14.4">
  </rect>
  <path class="st0" d="M170.8,68c1.7,0,3-1.4,3-3c0-1.6-1.3-3-3.1-3c-1.8,0-3.1,1.4-3.1,3C167.7,66.6,169,68,170.8,68 M162.5,65
		c0-4.2,3.6-7.6,8.3-7.6c4.8,0,8.3,3.4,8.3,7.6c0,4.2-3.5,7.6-8.3,7.6C166.1,72.5,162.5,69.1,162.5,65">
  </path>
  <polygon class="st0" points="180.9,57.4 190.5,63.2 190.5,57.6 195.6,57.6 195.6,72.4 195.2,72.4 185.5,66.5 185.5,72 180.3,72 
		180.3,57.4 	">
  </polygon>
  <polygon class="st0" points="189.6,38 182.1,38 176.1,0 195.7,0 	">
  </polygon>
  <path class="st0" d="M191.3,46.5c0,2.9-2.4,5.2-5.4,5.2c-3,0-5.4-2.3-5.4-5.2c0-2.9,2.4-5.2,5.4-5.2
		C188.9,41.3,191.3,43.7,191.3,46.5">
  </path>
  <path class="st0" d="M197.8,1h-0.3v0.4h0.3c0.2,0,0.3-0.1,0.3-0.2C198.1,1,198,1,197.8,1 M198.1,1.6l0.4,0.5h-0.4l-0.3-0.5h-0.3
		v0.5h-0.3V0.7h0.7c0.4,0,0.6,0.2,0.6,0.5C198.4,1.4,198.3,1.6,198.1,1.6 M197.7,0.2c-0.7,0-1.2,0.6-1.2,1.2c0,0.7,0.5,1.2,1.2,1.2
		c0.7,0,1.2-0.6,1.2-1.2C198.9,0.8,198.4,0.2,197.7,0.2 M197.7,2.9c-0.8,0-1.4-0.6-1.4-1.4c0-0.8,0.6-1.4,1.4-1.4
		c0.8,0,1.4,0.6,1.4,1.4C199.2,2.2,198.5,2.9,197.7,2.9">
  </path>
 </g>
</svg>