<?xml version="1.0" encoding="UTF-8"?>
<svg xmlns="http://www.w3.org/2000/svg" width="3.277in" height=".693in" version="1.1" viewBox="0 0 235.944 49.896">
  <!-- Generator: Adobe Illustrator 28.6.0, SVG Export Plug-In . SVG Version: 1.2.0 Build 709)  -->
  <g>
    <g id="Layer_1">
      <g id="Layer_1-2" data-name="Layer_1">
        <path d="M60.34,42.001v2.6c-1.1.1-2.1.2-2.9.2-3.9,0-5.9-2.1-5.9-6.3v-12.7h-3.6v-2.5h3.7l.1-5.3,2.9-.3v5.5h7.2v2.5h-7.2v13.2c0,2.2,1.1,3.2,3.2,3.2.8.1,1.6,0,2.5-.1Z" fill="#363636"/>
        <path d="M79.74,44.201h-3.1v-12.7c0-1.5-.1-2.6-.3-3.4-.2-.8-.6-1.4-1.3-1.9-.7-.5-1.5-.8-2.3-.8-1.6,0-3,.7-4.1,2.1s-1.6,3.2-1.6,5.5v11.3h-3.1V15.901h3.1v11.2c1.4-3,3.5-4.5,6.1-4.5,1.2,0,2.3.2,3.2.7.9.5,1.6,1.1,2.1,1.9s.8,1.6,1,2.3c.2.8.3,2.1.3,3.9,0,0,0,12.8,0,12.8Z" fill="#363636"/>
        <path d="M86.54,44.201h-3.1v-21.001h2.8v4.9c1-2.3,1.9-3.8,2.9-4.5s2-1,3-1c.3,0,.7,0,1.2.1v3.1h-.6c-1.7,0-3.2.7-4.3,2-1.1,1.3-1.8,3.1-1.9,5.3,0,0,0,11.1,0,11.1Z" fill="#363636"/>
        <path d="M99.441,17.201v3.6h-3.4v-3.6h3.4ZM99.341,23.201v20.901h-3.1v-20.901s3.1,0,3.1,0Z" fill="#363636"/>
        <path d="M116.041,23.201v2.5h-6.8v18.4h-3.1v-18.3h-4.3v-2.5h4.3c0-3.4.7-5.5,1.9-6.5,1.2-1,2.7-1.5,4.4-1.5.8,0,1.8.1,2.9.3v2.6c-.7-.2-1.3-.3-1.9-.3-1.4,0-2.4.3-3,.9-.7.6-1,1.8-1,3.5v.8h6.6v.1Z" fill="#363636"/>
        <path d="M128.241,42.001v2.6c-1.1.1-2.1.2-2.9.2-3.9,0-5.9-2.1-5.9-6.3v-12.796h-3.6v-2.596h3.6l.2-5.109,2.9-.3v5.309h6.9v2.596h-6.8v13.296c0,2.2,1.1,3.2,3.3,3.2.6.1,1.4,0,2.3-.1Z" fill="#363636"/>
        <path d="M133.441,44.201h-2.1V15.901h4.6v10.2c.9-1.6,1.7-2.6,2.6-3.1.9-.5,1.9-.8,3.1-.8,2.2,0,4.1,1,5.5,2.9,1.5,1.9,2.2,4.7,2.2,8.1,0,3.1-.7,5.8-2.2,8-1.4,2.2-3.5,3.3-6.2,3.3s-4.8-1.3-6.3-3.9l-1.2,3.6h0ZM135.941,35.201c0,1.9.4,3.2,1.2,4.1.8.9,1.8,1.3,3.1,1.3,1.2,0,2.2-.5,3-1.5s1.2-3,1.3-6c0-2.2-.4-3.9-1.1-5-.7-1.2-1.8-1.8-3.1-1.8-1.2,0-2.3.5-3.1,1.5s-1.2,2.4-1.2,4.3l-.1,3.1h0Z" fill="#363636"/>
        <path d="M160.742,44.601c-3,0-5.3-1.1-6.9-3.3-1.6-2.2-2.4-4.8-2.4-7.7,0-3.1.9-5.7,2.6-7.7,1.7-2.1,4.1-3.1,6.9-3.1,2.7,0,5,1,6.7,3s2.6,4.6,2.6,7.8c0,3.3-.9,6-2.7,8-1.7,2-4,3-6.8,3h0ZM160.842,40.701c3.1,0,4.6-2.4,4.6-7.1,0-2.2-.4-3.8-1.1-5.1-.8-1.2-1.9-1.9-3.4-1.9-1.6,0-2.7.6-3.5,1.9s-1.1,3-1.1,5.1c0,2.3.4,4,1.2,5.2.8,1.3,2,1.9,3.3,1.9Z" fill="#363636"/>
        <path d="M181.743,44.601c-3,0-5.3-1.1-6.9-3.3-1.6-2.2-2.4-4.8-2.4-7.7,0-3.1.9-5.7,2.6-7.7,1.7-2.1,4.1-3.1,6.9-3.1,2.7,0,4.9,1,6.7,3s2.6,4.6,2.6,7.8c0,3.3-.9,6-2.7,8s-4,3-6.8,3h0ZM181.943,40.701c3.1,0,4.6-2.4,4.6-7.1,0-2.2-.4-3.8-1.1-5.1-.7-1.2-1.9-1.9-3.4-1.9-1.6,0-2.7.6-3.5,1.9s-1.1,3-1.1,5.1c0,2.3.4,4,1.2,5.2.8,1.3,1.9,1.9,3.3,1.9Z" fill="#363636"/>
        <path d="M212.443,44.201h-4.8l-5.2-10.7-4.5,5.2v5.5h-4.3V15.901h4.4v17.5c.4-.5.7-.9.9-1.2l8-9h4.9l-6.1,6.9,6.7,14.1h0Z" fill="#363636"/>
        <path d="M212.343,39.401l4.3-.8c.7,1.7,2.1,2.5,4.3,2.5,2.8,0,4.2-.8,4.2-2.6,0-.6-.2-1-.7-1.4-.4-.4-1-.6-1.6-.7l-3.7-.7c-4.1-.8-6.1-2.9-6.1-6.2,0-1.8.7-3.4,1.9-4.7,1.3-1.3,3.2-1.9,5.8-1.9,4.3,0,6.9,1.6,7.8,4.9l-4.1.8c-.4-1.6-1.6-2.4-3.7-2.4-2.4,0-3.7.8-3.7,2.4,0,1.1,1,1.8,3,2.3l4.4.9c3.4.7,5.1,2.7,5.1,6,0,2.3-.9,4-2.6,5.2-1.7,1.1-3.8,1.7-6.2,1.7-2.1,0-3.9-.4-5.5-1.3-1.4-1-2.4-2.3-2.9-4Z" fill="#363636"/>
        <path d="M13.438,20.301l2-12c.1-.4-.2-.8-.6-.9l-7.5-1.3s-.1,0-.1.1l-2.1,12.4,8.3,1.7Z" fill="#008575"/>
        <path d="M4.938,20.301L.638,45.502s0,.1.1.1l7.5,1.4c.4,0,.7-.3.8-.7l4.2-24.601s-8.3-1.4-8.3-1.4Z" fill="#008575"/>
        <path d="M39.839,45.402l-3.4-29.901-6.4.8.6,4.8,2.9-.3.3,2.2-2.9.3,2.7,23.601,5.7-.7c.2,0,.5-.4.5-.8Z" fill="#008575"/>
        <path d="M15.338,36.701l11.9.2v-1.6h-11.9s0,1.4,0,1.4Z" fill="#008575"/>
        <path d="M27.239,39.801v-1.6h-11.9v1.5l11.9.1Z" fill="#008575"/>
        <path d="M27.239,46.902v-5.5l-11.9-.4v5.9h11.9Z" fill="#008575"/>
        <path d="M27.239,3v31.001h-11.9l.1-30.701s11.8-.3,11.8-.3Z" fill="#008575"/>
        <path d="M235.043,25.499c0,.711-.253,1.321-.759,1.83-.506.51-1.113.765-1.821.765-.713,0-1.324-.255-1.832-.765s-.762-1.121-.762-1.834.253-1.323.761-1.832c.507-.508,1.121-.762,1.841-.762.708,0,1.314.254,1.818.762.504.509.755,1.121.755,1.836h-.001ZM234.579,25.496c0-.596-.207-1.108-.622-1.536s-.912-.642-1.491-.642c-.591,0-1.095.213-1.511.64s-.624.94-.624,1.538c0,.604.209,1.118.626,1.544s.917.639,1.502.639c.579,0,1.077-.213,1.494-.639s.626-.94.626-1.544h0ZM233.758,26.992h-.671l-.486-1.208h-.715v1.208h-.639v-2.988h1.386c.38,0,.662.083.848.248.186.165.279.378.279.639,0,.372-.185.635-.554.788l.551,1.313h0ZM231.886,25.31h.656c.372,0,.559-.143.559-.427,0-.272-.171-.408-.511-.408h-.704v.836h0Z" fill="#363636"/>
      </g>
    </g>
  </g>
</svg>