<svg xmlns="http://www.w3.org/2000/svg" width="1920" height="1080" viewBox="0 0 1920 1080"><rect width="1920" height="1080" fill="#050505"/><g stroke-linecap="round"><line x1="20" x2="20" y1="438.9" y2="641.1" stroke="#ddd" stroke-opacity=".55"/><line x1="27" x2="27" y1="425.9" y2="654.1" stroke="#ddd" stroke-opacity=".55"/><line x1="34" x2="34" y1="412.4" y2="667.6" stroke="#ddd" stroke-opacity=".55"/><line x1="41" x2="41" y1="398.6" y2="681.4" stroke="#ddd" stroke-opacity=".55"/><line x1="48" x2="48" y1="384.8" y2="695.2" stroke="#ddd" stroke-opacity=".55"/><line x1="55" x2="55" y1="371.1" y2="708.9" stroke="#ddd" stroke-opacity=".55"/><line x1="62" x2="62" y1="357.8" y2="722.2" stroke="#ddd" stroke-opacity=".55"/><line x1="69" x2="69" y1="345.1" y2="734.9" stroke="#ddd" stroke-opacity=".55"/><line x1="76" x2="76" y1="333.2" y2="746.8" stroke="#ddd" stroke-opacity=".55"/><line x1="83" x2="83" y1="322.2" y2="757.8" stroke="#ddd" stroke-opacity=".55"/><line x1="90" x2="90" y1="312.4" y2="767.6" stroke="#ddd" stroke-opacity=".55"/><line x1="97" x2="97" y1="303.9" y2="776.1" stroke="#ddd" stroke-opacity=".55"/><line x1="104" x2="104" y1="296.9" y2="783.1" stroke="#ddd" stroke-opacity=".55"/><line x1="111" x2="111" y1="291.4" y2="788.6" stroke="#ddd" stroke-opacity=".55"/><line x1="118" x2="118" y1="287.6" y2="792.4" stroke="#ddd" stroke-opacity=".55"/><line x1="125" x2="125" y1="285.5" y2="794.5" stroke="#ddd" stroke-opacity=".55"/><line x1="132" x2="132" y1="285.1" y2="794.9" stroke="#ddd" stroke-opacity=".55"/><line x1="139" x2="139" y1="286.4" y2="793.6" stroke="#ddd" stroke-opacity=".55"/><line x1="146" x2="146" y1="289.5" y2="790.5" stroke="#ddd" stroke-opacity=".55"/><line x1="153" x2="153" y1="294.2" y2="785.8" stroke="#ddd" stroke-opacity=".55"/><line x1="160" x2="160" y1="300.6" y2="779.4" stroke="#ddd" stroke-opacity=".55"/><line x1="167" x2="167" y1="308.4" y2="771.6" stroke="#ddd" stroke-opacity=".55"/><line x1="174" x2="174" y1="317.6" y2="762.4" stroke="#ddd" stroke-opacity=".55"/><line x1="181" x2="181" y1="328.0" y2="752.0" stroke="#ddd" stroke-opacity=".55"/><line x1="188" x2="188" y1="339.5" y2="740.5" stroke="#ddd" stroke-opacity=".55"/><line x1="195" x2="195" y1="351.9" y2="728.1" stroke="#ddd" stroke-opacity=".55"/><line x1="202" x2="202" y1="365.0" y2="715.0" stroke="#ddd" stroke-opacity=".55"/><line x1="209" x2="209" y1="378.5" y2="701.5" stroke="#ddd" stroke-opacity=".55"/><line x1="216" x2="216" y1="392.3" y2="687.7" stroke="#ddd" stroke-opacity=".55"/><line x1="223" x2="223" y1="406.1" y2="673.9" stroke="#ddd" stroke-opacity=".55"/><line x1="230" x2="230" y1="419.8" y2="660.2" stroke="#ddd" stroke-opacity=".55"/><line x1="237" x2="237" y1="433.1" y2="646.9" stroke="#ddd" stroke-opacity=".55"/><line x1="244" x2="244" y1="445.7" y2="634.3" stroke="#ddd" stroke-opacity=".55"/><line x1="251" x2="251" y1="457.6" y2="622.4" stroke="#ddd" stroke-opacity=".55"/><line x1="258" x2="258" y1="468.5" y2="611.5" stroke="#ddd" stroke-opacity=".55"/><line x1="265" x2="265" y1="478.2" y2="601.8" stroke="#ddd" stroke-opacity=".55"/><line x1="272" x2="272" y1="486.6" y2="593.4" stroke="#ddd" stroke-opacity=".55"/><line x1="279" x2="279" y1="493.5" y2="586.5" stroke="#ddd" stroke-opacity=".55"/><line x1="286" x2="286" y1="498.9" y2="581.1" stroke="#ddd" stroke-opacity=".55"/><line x1="293" x2="293" y1="502.6" y2="577.4" stroke="#ddd" stroke-opacity=".55"/><line x1="300" x2="300" y1="504.6" y2="575.4" stroke="#ddd" stroke-opacity=".55"/><line x1="307" x2="307" y1="504.9" y2="575.1" stroke="#ddd" stroke-opacity=".55"/><line x1="314" x2="314" y1="503.4" y2="576.6" stroke="#ddd" stroke-opacity=".55"/><line x1="321" x2="321" y1="500.3" y2="579.7" stroke="#ddd" stroke-opacity=".55"/><line x1="328" x2="328" y1="495.4" y2="584.6" stroke="#ddd" stroke-opacity=".55"/><line x1="335" x2="335" y1="489.0" y2="591.0" stroke="#ddd" stroke-opacity=".55"/><line x1="342" x2="342" y1="481.1" y2="598.9" stroke="#ddd" stroke-opacity=".55"/><line x1="349" x2="349" y1="471.8" y2="608.2" stroke="#ddd" stroke-opacity=".55"/><line x1="356" x2="356" y1="461.3" y2="618.7" stroke="#ddd" stroke-opacity=".55"/><line x1="363" x2="363" y1="449.7" y2="630.3" stroke="#ddd" stroke-opacity=".55"/><line x1="370" x2="370" y1="437.3" y2="642.7" stroke="#ddd" stroke-opacity=".55"/><line x1="377" x2="377" y1="424.2" y2="655.8" stroke="#ddd" stroke-opacity=".55"/><line x1="384" x2="384" y1="410.6" y2="669.4" stroke="#ddd" stroke-opacity=".55"/><line x1="391" x2="391" y1="396.8" y2="683.2" stroke="#ddd" stroke-opacity=".55"/><line x1="398" x2="398" y1="383.0" y2="697.0" stroke="#ddd" stroke-opacity=".55"/><line x1="405" x2="405" y1="369.3" y2="710.7" stroke="#ddd" stroke-opacity=".55"/><line x1="412" x2="412" y1="356.1" y2="723.9" stroke="#ddd" stroke-opacity=".55"/><line x1="419" x2="419" y1="343.5" y2="736.5" stroke="#ddd" stroke-opacity=".55"/><line x1="426" x2="426" y1="331.7" y2="748.3" stroke="#ddd" stroke-opacity=".55"/><line x1="433" x2="433" y1="320.9" y2="759.1" stroke="#ddd" stroke-opacity=".55"/><line x1="440" x2="440" y1="311.2" y2="768.8" stroke="#ddd" stroke-opacity=".55"/><line x1="447" x2="447" y1="303.0" y2="777.0" stroke="#ddd" stroke-opacity=".55"/><line x1="454" x2="454" y1="296.1" y2="783.9" stroke="#ddd" stroke-opacity=".55"/><line x1="461" x2="461" y1="290.8" y2="789.2" stroke="#ddd" stroke-opacity=".55"/><line x1="468" x2="468" y1="287.2" y2="792.8" stroke="#ddd" stroke-opacity=".55"/><line x1="475" x2="475" y1="285.3" y2="794.7" stroke="#ddd" stroke-opacity=".55"/><line x1="482" x2="482" y1="285.1" y2="794.9" stroke="#ddd" stroke-opacity=".55"/><line x1="489" x2="489" y1="286.7" y2="793.3" stroke="#ddd" stroke-opacity=".55"/><line x1="496" x2="496" y1="290.0" y2="790.0" stroke="#ddd" stroke-opacity=".55"/><line x1="503" x2="503" y1="294.9" y2="785.1" stroke="#ddd" stroke-opacity=".55"/><line x1="510" x2="510" y1="301.5" y2="778.5" stroke="#ddd" stroke-opacity=".55"/><line x1="517" x2="517" y1="309.5" y2="770.5" stroke="#ddd" stroke-opacity=".55"/><line x1="524" x2="524" y1="318.9" y2="761.1" stroke="#ddd" stroke-opacity=".55"/><line x1="531" x2="531" y1="329.5" y2="750.5" stroke="#ddd" stroke-opacity=".55"/><line x1="538" x2="538" y1="341.1" y2="738.9" stroke="#ddd" stroke-opacity=".55"/><line x1="545" x2="545" y1="353.6" y2="726.4" stroke="#ddd" stroke-opacity=".55"/><line x1="552" x2="552" y1="366.7" y2="713.3" stroke="#ddd" stroke-opacity=".55"/><line x1="559" x2="559" y1="380.3" y2="699.7" stroke="#ddd" stroke-opacity=".55"/><line x1="566" x2="566" y1="394.1" y2="685.9" stroke="#ddd" stroke-opacity=".55"/><line x1="573" x2="573" y1="407.9" y2="672.1" stroke="#ddd" stroke-opacity=".55"/><line x1="580" x2="580" y1="421.5" y2="658.5" stroke="#ddd" stroke-opacity=".55"/><line x1="587" x2="587" y1="434.7" y2="645.3" stroke="#ddd" stroke-opacity=".55"/><line x1="594" x2="594" y1="447.3" y2="632.7" stroke="#ddd" stroke-opacity=".55"/><line x1="601" x2="601" y1="459.1" y2="620.9" stroke="#ddd" stroke-opacity=".55"/><line x1="608" x2="608" y1="469.8" y2="610.2" stroke="#ddd" stroke-opacity=".55"/><line x1="615" x2="615" y1="479.3" y2="600.7" stroke="#ddd" stroke-opacity=".55"/><line x1="622" x2="622" y1="487.5" y2="592.5" stroke="#ddd" stroke-opacity=".55"/><line x1="629" x2="629" y1="494.3" y2="585.7" stroke="#ddd" stroke-opacity=".55"/><line x1="636" x2="636" y1="499.4" y2="580.6" stroke="#ddd" stroke-opacity=".55"/><line x1="643" x2="643" y1="503.0" y2="577.0" stroke="#ddd" stroke-opacity=".55"/><line x1="650" x2="650" y1="504.8" y2="575.2" stroke="#ddd" stroke-opacity=".55"/><line x1="657" x2="657" y1="504.8" y2="575.2" stroke="#ddd" stroke-opacity=".55"/><line x1="664" x2="664" y1="503.1" y2="576.9" stroke="#ddd" stroke-opacity=".55"/><line x1="671" x2="671" y1="499.7" y2="580.3" stroke="#ddd" stroke-opacity=".55"/><line x1="678" x2="678" y1="494.7" y2="585.3" stroke="#ddd" stroke-opacity=".55"/><line x1="685" x2="685" y1="488.0" y2="592.0" stroke="#ddd" stroke-opacity=".55"/><line x1="692" x2="692" y1="479.9" y2="600.1" stroke="#ddd" stroke-opacity=".55"/><line x1="699" x2="699" y1="470.5" y2="609.5" stroke="#ddd" stroke-opacity=".55"/><line x1="706" x2="706" y1="459.8" y2="620.2" stroke="#ddd" stroke-opacity=".55"/><line x1="713" x2="713" y1="448.1" y2="631.9" stroke="#ddd" stroke-opacity=".55"/><line x1="720" x2="720" y1="435.6" y2="644.4" stroke="#ddd" stroke-opacity=".55"/><line x1="727" x2="727" y1="422.4" y2="657.6" stroke="#ddd" stroke-opacity=".55"/><line x1="734" x2="734" y1="408.8" y2="671.2" stroke="#ddd" stroke-opacity=".55"/><line x1="741" x2="741" y1="395.0" y2="685.0" stroke="#ddd" stroke-opacity=".55"/><line x1="748" x2="748" y1="381.2" y2="698.8" stroke="#ddd" stroke-opacity=".55"/><line x1="755" x2="755" y1="367.6" y2="712.4" stroke="#ddd" stroke-opacity=".55"/><line x1="762" x2="762" y1="354.4" y2="725.6" stroke="#ddd" stroke-opacity=".55"/><line x1="769" x2="769" y1="341.9" y2="738.1" stroke="#ddd" stroke-opacity=".55"/><line x1="776" x2="776" y1="330.2" y2="749.8" stroke="#ddd" stroke-opacity=".55"/><line x1="783" x2="783" y1="319.6" y2="760.4" stroke="#ddd" stroke-opacity=".55"/><line x1="790" x2="790" y1="310.1" y2="769.9" stroke="#ddd" stroke-opacity=".55"/><line x1="797" x2="797" y1="302.0" y2="778.0" stroke="#ddd" stroke-opacity=".55"/><line x1="804" x2="804" y1="295.3" y2="784.7" stroke="#ddd" stroke-opacity=".55"/><line x1="811" x2="811" y1="290.3" y2="789.7" stroke="#ddd" stroke-opacity=".55"/><line x1="818" x2="818" y1="286.9" y2="793.1" stroke="#ddd" stroke-opacity=".55"/><line x1="825" x2="825" y1="285.2" y2="794.8" stroke="#ddd" stroke-opacity=".55"/><line x1="832" x2="832" y1="285.2" y2="794.8" stroke="#ddd" stroke-opacity=".55"/><line x1="839" x2="839" y1="287.0" y2="793.0" stroke="#ddd" stroke-opacity=".55"/><line x1="846" x2="846" y1="290.5" y2="789.5" stroke="#ddd" stroke-opacity=".55"/><line x1="853" x2="853" y1="295.7" y2="784.3" stroke="#ddd" stroke-opacity=".55"/><line x1="860" x2="860" y1="302.4" y2="777.6" stroke="#ddd" stroke-opacity=".55"/><line x1="867" x2="867" y1="310.6" y2="769.4" stroke="#ddd" stroke-opacity=".55"/><line x1="874" x2="874" y1="320.2" y2="759.8" stroke="#ddd" stroke-opacity=".55"/><line x1="881" x2="881" y1="330.9" y2="749.1" stroke="#ddd" stroke-opacity=".55"/><line x1="888" x2="888" y1="342.7" y2="737.3" stroke="#ddd" stroke-opacity=".55"/><line x1="895" x2="895" y1="355.2" y2="724.8" stroke="#ddd" stroke-opacity=".55"/><line x1="902" x2="902" y1="368.4" y2="711.6" stroke="#ddd" stroke-opacity=".55"/><line x1="909" x2="909" y1="382.1" y2="697.9" stroke="#ddd" stroke-opacity=".55"/><line x1="916" x2="916" y1="395.9" y2="684.1" stroke="#ddd" stroke-opacity=".55"/><line x1="923" x2="923" y1="409.7" y2="670.3" stroke="#ddd" stroke-opacity=".55"/><line x1="930" x2="930" y1="423.3" y2="656.7" stroke="#ddd" stroke-opacity=".55"/><line x1="937" x2="937" y1="436.4" y2="643.6" stroke="#ddd" stroke-opacity=".55"/><line x1="944" x2="944" y1="448.9" y2="631.1" stroke="#ddd" stroke-opacity=".55"/><line x1="951" x2="951" y1="460.5" y2="619.5" stroke="#ddd" stroke-opacity=".55"/><line x1="958" x2="958" y1="471.1" y2="608.9" stroke="#ddd" stroke-opacity=".55"/><line x1="965" x2="965" y1="480.5" y2="599.5" stroke="#ddd" stroke-opacity=".55"/><line x1="972" x2="972" y1="488.5" y2="591.5" stroke="#ddd" stroke-opacity=".55"/><line x1="979" x2="979" y1="495.0" y2="585.0" stroke="#ddd" stroke-opacity=".55"/><line x1="986" x2="986" y1="500.0" y2="580.0" stroke="#ddd" stroke-opacity=".55"/><line x1="993" x2="993" y1="503.3" y2="576.7" stroke="#ddd" stroke-opacity=".55"/><line x1="1000" x2="1000" y1="504.9" y2="575.1" stroke="#ddd" stroke-opacity=".55"/><line x1="1007" x2="1007" y1="504.7" y2="575.3" stroke="#ddd" stroke-opacity=".55"/><line x1="1014" x2="1014" y1="502.8" y2="577.2" stroke="#ddd" stroke-opacity=".55"/><line x1="1021" x2="1021" y1="499.2" y2="580.8" stroke="#ddd" stroke-opacity=".55"/><line x1="1028" x2="1028" y1="493.9" y2="586.1" stroke="#ddd" stroke-opacity=".55"/><line x1="1035" x2="1035" y1="487.1" y2="592.9" stroke="#ddd" stroke-opacity=".55"/><line x1="1042" x2="1042" y1="478.8" y2="601.2" stroke="#ddd" stroke-opacity=".55"/><line x1="1049" x2="1049" y1="469.1" y2="610.9" stroke="#ddd" stroke-opacity=".55"/><line x1="1056" x2="1056" y1="458.4" y2="621.6" stroke="#ddd" stroke-opacity=".55"/><line x1="1063" x2="1063" y1="446.5" y2="633.5" stroke="#ddd" stroke-opacity=".55"/><line x1="1070" x2="1070" y1="433.9" y2="646.1" stroke="#ddd" stroke-opacity=".55"/><line x1="1077" x2="1077" y1="420.7" y2="659.3" stroke="#ddd" stroke-opacity=".55"/><line x1="1084" x2="1084" y1="407.0" y2="673.0" stroke="#ddd" stroke-opacity=".55"/><line x1="1091" x2="1091" y1="393.2" y2="686.8" stroke="#ddd" stroke-opacity=".55"/><line x1="1098" x2="1098" y1="379.4" y2="700.6" stroke="#ddd" stroke-opacity=".55"/><line x1="1105" x2="1105" y1="365.8" y2="714.2" stroke="#ddd" stroke-opacity=".55"/><line x1="1112" x2="1112" y1="352.8" y2="727.2" stroke="#ddd" stroke-opacity=".55"/><line x1="1119" x2="1119" y1="340.3" y2="739.7" stroke="#ddd" stroke-opacity=".55"/><line x1="1126" x2="1126" y1="328.8" y2="751.2" stroke="#ddd" stroke-opacity=".55"/><line x1="1133" x2="1133" y1="318.3" y2="761.7" stroke="#ddd" stroke-opacity=".55"/><line x1="1140" x2="1140" y1="309.0" y2="771.0" stroke="#ddd" stroke-opacity=".55"/><line x1="1147" x2="1147" y1="301.0" y2="779.0" stroke="#ddd" stroke-opacity=".55"/><line x1="1154" x2="1154" y1="294.6" y2="785.4" stroke="#ddd" stroke-opacity=".55"/><line x1="1161" x2="1161" y1="289.7" y2="790.3" stroke="#ddd" stroke-opacity=".55"/><line x1="1168" x2="1168" y1="286.6" y2="793.4" stroke="#ddd" stroke-opacity=".55"/><line x1="1175" x2="1175" y1="285.1" y2="794.9" stroke="#ddd" stroke-opacity=".55"/><line x1="1182" x2="1182" y1="285.4" y2="794.6" stroke="#ddd" stroke-opacity=".55"/><line x1="1189" x2="1189" y1="287.4" y2="792.6" stroke="#ddd" stroke-opacity=".55"/><line x1="1196" x2="1196" y1="291.1" y2="788.9" stroke="#ddd" stroke-opacity=".55"/><line x1="1203" x2="1203" y1="296.5" y2="783.5" stroke="#ddd" stroke-opacity=".55"/><line x1="1210" x2="1210" y1="303.4" y2="776.6" stroke="#ddd" stroke-opacity=".55"/><line x1="1217" x2="1217" y1="311.8" y2="768.2" stroke="#ddd" stroke-opacity=".55"/><line x1="1224" x2="1224" y1="321.5" y2="758.5" stroke="#ddd" stroke-opacity=".55"/><line x1="1231" x2="1231" y1="332.4" y2="747.6" stroke="#ddd" stroke-opacity=".55"/><line x1="1238" x2="1238" y1="344.2" y2="735.8" stroke="#ddd" stroke-opacity=".55"/><line x1="1245" x2="1245" y1="356.9" y2="723.1" stroke="#ddd" stroke-opacity=".55"/><line x1="1252" x2="1252" y1="370.2" y2="709.8" stroke="#ddd" stroke-opacity=".55"/><line x1="1259" x2="1259" y1="383.8" y2="696.2" stroke="#ddd" stroke-opacity=".55"/><line x1="1266" x2="1266" y1="397.7" y2="682.3" stroke="#ddd" stroke-opacity=".55"/><line x1="1273" x2="1273" y1="411.5" y2="668.5" stroke="#ddd" stroke-opacity=".55"/><line x1="1280" x2="1280" y1="425.0" y2="655.0" stroke="#ddd" stroke-opacity=".55"/><line x1="1287" x2="1287" y1="438.1" y2="641.9" stroke="#ddd" stroke-opacity=".55"/><line x1="1294" x2="1294" y1="450.5" y2="629.5" stroke="#ddd" stroke-opacity=".55"/><line x1="1301" x2="1301" y1="462.0" y2="618.0" stroke="#ddd" stroke-opacity=".55"/><line x1="1308" x2="1308" y1="472.4" y2="607.6" stroke="#ddd" stroke-opacity=".55"/><line x1="1315" x2="1315" y1="481.6" y2="598.4" stroke="#ddd" stroke-opacity=".55"/><line x1="1322" x2="1322" y1="489.4" y2="590.6" stroke="#ddd" stroke-opacity=".55"/><line x1="1329" x2="1329" y1="495.8" y2="584.2" stroke="#ddd" stroke-opacity=".55"/><line x1="1336" x2="1336" y1="500.5" y2="579.5" stroke="#ddd" stroke-opacity=".55"/><line x1="1343" x2="1343" y1="503.6" y2="576.4" stroke="#ddd" stroke-opacity=".55"/><line x1="1350" x2="1350" y1="504.9" y2="575.1" stroke="#ddd" stroke-opacity=".55"/><line x1="1357" x2="1357" y1="504.5" y2="575.5" stroke="#ddd" stroke-opacity=".55"/><line x1="1364" x2="1364" y1="502.4" y2="577.6" stroke="#ddd" stroke-opacity=".55"/><line x1="1371" x2="1371" y1="498.6" y2="581.4" stroke="#ddd" stroke-opacity=".55"/><line x1="1378" x2="1378" y1="493.1" y2="586.9" stroke="#ddd" stroke-opacity=".55"/><line x1="1385" x2="1385" y1="486.1" y2="593.9" stroke="#ddd" stroke-opacity=".55"/><line x1="1392" x2="1392" y1="477.6" y2="602.4" stroke="#ddd" stroke-opacity=".55"/><line x1="1399" x2="1399" y1="467.8" y2="612.2" stroke="#ddd" stroke-opacity=".55"/><line x1="1406" x2="1406" y1="456.9" y2="623.1" stroke="#ddd" stroke-opacity=".55"/><line x1="1413" x2="1413" y1="445.0" y2="635.0" stroke="#ddd" stroke-opacity=".55"/><line x1="1420" x2="1420" y1="432.2" y2="647.8" stroke="#ddd" stroke-opacity=".55"/><line x1="1427" x2="1427" y1="418.9" y2="661.1" stroke="#ddd" stroke-opacity=".55"/><line x1="1434" x2="1434" y1="405.3" y2="674.7" stroke="#ddd" stroke-opacity=".55"/><line x1="1441" x2="1441" y1="391.4" y2="688.6" stroke="#ddd" stroke-opacity=".55"/><line x1="1448" x2="1448" y1="377.6" y2="702.4" stroke="#ddd" stroke-opacity=".55"/><line x1="1455" x2="1455" y1="364.1" y2="715.9" stroke="#ddd" stroke-opacity=".55"/><line x1="1462" x2="1462" y1="351.1" y2="728.9" stroke="#ddd" stroke-opacity=".55"/><line x1="1469" x2="1469" y1="338.8" y2="741.2" stroke="#ddd" stroke-opacity=".55"/><line x1="1476" x2="1476" y1="327.3" y2="752.7" stroke="#ddd" stroke-opacity=".55"/><line x1="1483" x2="1483" y1="317.0" y2="763.0" stroke="#ddd" stroke-opacity=".55"/><line x1="1490" x2="1490" y1="307.8" y2="772.2" stroke="#ddd" stroke-opacity=".55"/><line x1="1497" x2="1497" y1="300.1" y2="779.9" stroke="#ddd" stroke-opacity=".55"/><line x1="1504" x2="1504" y1="293.9" y2="786.1" stroke="#ddd" stroke-opacity=".55"/><line x1="1511" x2="1511" y1="289.2" y2="790.8" stroke="#ddd" stroke-opacity=".55"/><line x1="1518" x2="1518" y1="286.3" y2="793.7" stroke="#ddd" stroke-opacity=".55"/><line x1="1525" x2="1525" y1="285.0" y2="795.0" stroke="#ddd" stroke-opacity=".55"/><line x1="1532" x2="1532" y1="285.5" y2="794.5" stroke="#ddd" stroke-opacity=".55"/><line x1="1539" x2="1539" y1="287.8" y2="792.2" stroke="#ddd" stroke-opacity=".55"/><line x1="1546" x2="1546" y1="291.7" y2="788.3" stroke="#ddd" stroke-opacity=".55"/><line x1="1553" x2="1553" y1="297.3" y2="782.7" stroke="#ddd" stroke-opacity=".55"/><line x1="1560" x2="1560" y1="304.4" y2="775.6" stroke="#ddd" stroke-opacity=".55"/><line x1="1567" x2="1567" y1="313.0" y2="767.0" stroke="#ddd" stroke-opacity=".55"/><line x1="1574" x2="1574" y1="322.9" y2="757.1" stroke="#ddd" stroke-opacity=".55"/><line x1="1581" x2="1581" y1="333.9" y2="746.1" stroke="#ddd" stroke-opacity=".55"/><line x1="1588" x2="1588" y1="345.9" y2="734.1" stroke="#ddd" stroke-opacity=".55"/><line x1="1595" x2="1595" y1="358.6" y2="721.4" stroke="#ddd" stroke-opacity=".55"/><line x1="1602" x2="1602" y1="371.9" y2="708.1" stroke="#ddd" stroke-opacity=".55"/><line x1="1609" x2="1609" y1="385.6" y2="694.4" stroke="#ddd" stroke-opacity=".55"/><line x1="1616" x2="1616" y1="399.5" y2="680.5" stroke="#ddd" stroke-opacity=".55"/><line x1="1623" x2="1623" y1="413.3" y2="666.7" stroke="#ddd" stroke-opacity=".55"/><line x1="1630" x2="1630" y1="426.7" y2="653.3" stroke="#ddd" stroke-opacity=".55"/><line x1="1637" x2="1637" y1="439.7" y2="640.3" stroke="#ddd" stroke-opacity=".55"/><line x1="1644" x2="1644" y1="452.0" y2="628.0" stroke="#ddd" stroke-opacity=".55"/><line x1="1651" x2="1651" y1="463.4" y2="616.6" stroke="#ddd" stroke-opacity=".55"/><line x1="1658" x2="1658" y1="473.7" y2="606.3" stroke="#ddd" stroke-opacity=".55"/><line x1="1665" x2="1665" y1="482.7" y2="597.3" stroke="#ddd" stroke-opacity=".55"/><line x1="1672" x2="1672" y1="490.3" y2="589.7" stroke="#ddd" stroke-opacity=".55"/><line x1="1679" x2="1679" y1="496.5" y2="583.5" stroke="#ddd" stroke-opacity=".55"/><line x1="1686" x2="1686" y1="501.0" y2="579.0" stroke="#ddd" stroke-opacity=".55"/><line x1="1693" x2="1693" y1="503.9" y2="576.1" stroke="#ddd" stroke-opacity=".55"/><line x1="1700" x2="1700" y1="505.0" y2="575.0" stroke="#ddd" stroke-opacity=".55"/><line x1="1707" x2="1707" y1="504.4" y2="575.6" stroke="#ddd" stroke-opacity=".55"/><line x1="1714" x2="1714" y1="502.0" y2="578.0" stroke="#ddd" stroke-opacity=".55"/><line x1="1721" x2="1721" y1="498.0" y2="582.0" stroke="#ddd" stroke-opacity=".55"/><line x1="1728" x2="1728" y1="492.3" y2="587.7" stroke="#ddd" stroke-opacity=".55"/><line x1="1735" x2="1735" y1="485.0" y2="595.0" stroke="#ddd" stroke-opacity=".55"/><line x1="1742" x2="1742" y1="476.4" y2="603.6" stroke="#ddd" stroke-opacity=".55"/><line x1="1749" x2="1749" y1="466.4" y2="613.6" stroke="#ddd" stroke-opacity=".55"/><line x1="1756" x2="1756" y1="455.4" y2="624.6" stroke="#ddd" stroke-opacity=".55"/><line x1="1763" x2="1763" y1="443.3" y2="636.7" stroke="#ddd" stroke-opacity=".55"/><line x1="1770" x2="1770" y1="430.5" y2="649.5" stroke="#ddd" stroke-opacity=".55"/><line x1="1777" x2="1777" y1="417.2" y2="662.8" stroke="#ddd" stroke-opacity=".55"/><line x1="1784" x2="1784" y1="403.5" y2="676.5" stroke="#ddd" stroke-opacity=".55"/><line x1="1791" x2="1791" y1="389.6" y2="690.4" stroke="#ddd" stroke-opacity=".55"/><line x1="1798" x2="1798" y1="375.9" y2="704.1" stroke="#ddd" stroke-opacity=".55"/><line x1="1805" x2="1805" y1="362.4" y2="717.6" stroke="#ddd" stroke-opacity=".55"/><line x1="1812" x2="1812" y1="349.5" y2="730.5" stroke="#ddd" stroke-opacity=".55"/><line x1="1819" x2="1819" y1="337.2" y2="742.8" stroke="#ddd" stroke-opacity=".55"/><line x1="1826" x2="1826" y1="325.9" y2="754.1" stroke="#ddd" stroke-opacity=".55"/><line x1="1833" x2="1833" y1="315.7" y2="764.3" stroke="#ddd" stroke-opacity=".55"/><line x1="1840" x2="1840" y1="306.8" y2="773.2" stroke="#ddd" stroke-opacity=".55"/><line x1="1847" x2="1847" y1="299.2" y2="780.8" stroke="#ddd" stroke-opacity=".55"/><line x1="1854" x2="1854" y1="293.2" y2="786.8" stroke="#ddd" stroke-opacity=".55"/><line x1="1861" x2="1861" y1="288.8" y2="791.2" stroke="#ddd" stroke-opacity=".55"/><line x1="1868" x2="1868" y1="286.0" y2="794.0" stroke="#ddd" stroke-opacity=".55"/><line x1="1875" x2="1875" y1="285.0" y2="795.0" stroke="#ddd" stroke-opacity=".55"/><line x1="1882" x2="1882" y1="285.7" y2="794.3" stroke="#ddd" stroke-opacity=".55"/><line x1="1889" x2="1889" y1="288.2" y2="791.8" stroke="#ddd" stroke-opacity=".55"/><line x1="1896" x2="1896" y1="292.4" y2="787.6" stroke="#ddd" stroke-opacity=".55"/></g><line x1="0" x2="1920" y1="540" y2="540" stroke="#fff" stroke-opacity=".08"/></svg>