<svg xmlns="http://www.w3.org/2000/svg" width="1198" height="826" viewBox="0 0 1198 826">
<g>
<path d="M 565.23 815.75 C558.68,789.91 551.12,771.24 539.22,751.50 C513.33,708.57 474.30,679.02 426.50,666.15 C404.26,660.16 385.28,658.09 352.00,658.00 C333.24,657.95 290.51,655.46 284.50,654.07 C282.30,653.56 277.38,652.44 273.56,651.59 C263.99,649.43 256.13,646.63 245.13,641.44 C228.74,633.70 219.24,625.21 207.25,607.56 C201.20,598.66 203.31,596.05 211.11,602.79 C229.00,618.25 255.56,628.99 283.50,632.05 C306.41,634.56 316.60,635.07 361.50,635.98 C412.62,637.01 420.51,637.70 437.50,642.61 C468.91,651.69 493.09,663.90 515.30,681.90 C524.97,689.74 538.57,704.22 544.68,713.18 L 549.50 720.23 L 549.79 713.19 C550.04,707.11 549.60,704.89 546.57,697.05 C543.51,689.12 538.71,679.51 537.05,678.00 C536.75,677.72 534.50,674.58 532.05,671.00 C529.60,667.42 526.01,662.70 524.08,660.50 C518.20,653.82 494.31,630.16 480.12,616.95 C472.76,610.10 465.65,603.49 464.32,602.25 C462.99,601.01 461.71,600.00 461.48,600.00 C461.25,600.00 459.14,601.01 456.78,602.25 C448.12,606.80 436.73,603.83 431.02,595.53 L 428.08 591.26 L 415.13 590.54 L 402.17 589.83 L 400.65 586.69 C398.19,581.62 399.78,580.72 409.67,581.54 C414.24,581.92 420.37,581.93 423.30,581.57 C428.24,580.95 428.73,580.65 429.87,577.48 C431.24,573.69 439.52,566.02 442.25,566.01 C443.82,566.00 444.00,564.74 444.00,553.57 C444.00,543.61 444.31,540.83 445.57,539.57 C447.12,538.03 447.65,537.88 453.34,537.49 L 456.18 537.30 L 455.84 551.81 C455.59,562.49 455.82,566.44 456.70,566.73 C460.00,567.84 464.68,571.94 466.16,575.03 C470.00,583.05 470.26,583.99 469.66,587.74 C469.08,591.34 469.30,591.81 472.87,594.55 C474.98,596.17 479.54,599.97 483.00,603.00 C489.61,608.78 491.60,610.43 495.26,613.18 C496.49,614.10 500.43,617.25 504.01,620.18 C507.59,623.11 512.71,627.27 515.39,629.43 C523.08,635.62 544.12,656.19 546.15,659.50 L 547.99 662.50 L 548.02 659.50 C548.03,657.85 548.02,638.95 548.00,617.50 C547.96,579.16 547.92,578.44 545.73,574.27 C537.07,557.80 516.40,535.37 491.67,515.61 C472.33,500.16 468.16,497.00 467.12,497.00 C466.64,497.00 464.23,497.89 461.76,498.99 C456.35,501.38 456.03,502.59 456.01,520.66 C456.00,532.69 455.98,532.82 453.75,532.54 C448.91,531.92 445.91,530.69 444.97,528.95 C444.44,527.95 444.00,521.09 444.00,513.70 L 444.00 500.27 L 440.25 497.78 L 436.50 495.30 L 430.88 497.90 C424.75,500.74 421.33,502.22 410.00,506.94 C402.22,510.18 401.70,510.41 388.50,516.53 C384.10,518.57 378.74,520.86 376.59,521.63 C374.43,522.40 372.18,523.41 371.59,523.88 C370.99,524.35 368.80,525.29 366.72,525.96 C363.13,527.11 362.97,527.34 363.57,530.52 C364.44,535.17 362.60,540.03 358.43,544.07 C354.94,547.45 354.77,547.50 346.01,547.50 C337.52,547.50 336.99,547.37 333.97,544.50 C330.17,540.90 328.87,538.08 328.09,531.74 L 327.50 526.98 L 309.00 518.13 C298.83,513.26 287.35,507.80 283.50,505.98 C268.77,499.03 252.61,490.93 251.25,489.79 C250.34,489.03 249.38,488.95 248.57,489.56 C239.97,495.95 238.62,496.48 231.00,496.47 C225.13,496.46 222.56,495.96 219.16,494.16 L 214.82 491.87 L 206.66 497.14 C202.17,500.04 196.93,503.58 195.00,505.00 C193.07,506.41 188.61,509.32 185.07,511.46 C181.54,513.59 175.40,517.63 171.43,520.42 C167.47,523.21 160.98,527.53 157.02,530.00 L 149.81 534.50 L 150.28 538.68 C151.20,547.01 146.26,553.38 136.92,555.92 C129.08,558.05 122.90,555.36 117.57,547.51 C114.15,542.47 114.21,537.62 117.74,532.17 C122.42,524.96 132.89,521.82 140.00,525.50 C142.88,526.99 143.06,526.91 155.71,518.54 C162.74,513.89 170.52,508.68 173.00,506.97 C177.21,504.05 197.36,491.01 204.86,486.35 C208.20,484.27 208.23,484.17 208.38,476.38 C208.48,471.13 209.11,467.36 210.27,465.10 C211.22,463.22 212.00,461.58 212.00,461.45 C212.00,461.16 189.67,442.08 182.70,436.42 C177.86,432.49 177.53,432.38 173.40,433.33 C163.89,435.51 152.96,427.40 153.02,418.20 C153.06,409.59 159.38,402.16 167.43,401.26 C178.44,400.01 186.07,405.80 186.80,415.97 C187.03,419.15 186.72,422.65 186.10,423.81 C185.11,425.66 185.51,426.30 189.58,429.41 C192.11,431.34 196.73,435.13 199.84,437.83 C202.95,440.53 208.42,445.27 211.99,448.37 C215.56,451.47 218.76,454.00 219.09,454.00 C219.71,454.00 218.92,448.27 217.16,440.00 C216.64,437.52 214.35,426.50 212.09,415.50 C209.83,404.50 207.08,391.45 205.98,386.50 C204.89,381.55 203.79,376.05 203.55,374.28 C202.81,368.95 201.46,367.49 195.92,366.08 C189.67,364.47 182.93,358.35 181.01,352.53 C178.39,344.59 182.79,332.34 190.18,326.99 C196.15,322.66 200.95,321.61 208.63,322.95 C216.52,324.32 221.01,326.91 224.40,332.03 C225.85,334.22 227.52,336.00 228.12,336.00 C229.60,336.00 265.54,320.11 272.00,316.59 C273.38,315.84 275.96,314.92 277.75,314.54 C281.10,313.82 281.23,313.58 282.47,305.83 C283.32,300.57 289.09,295.74 298.50,292.44 C302.14,291.17 311.77,290.81 312.46,291.93 C312.82,292.52 314.89,293.00 317.06,293.00 C319.23,293.00 321.00,293.46 321.00,294.03 C321.00,295.61 316.04,305.06 313.15,309.00 C310.23,312.97 304.59,318.54 301.25,320.74 C299.07,322.19 299.00,322.72 299.01,338.87 C299.01,348.01 299.30,359.77 299.65,365.00 L 300.29 374.50 L 306.32 379.50 C309.63,382.25 316.20,387.88 320.92,392.01 C325.64,396.14 332.42,401.75 336.00,404.46 C339.58,407.18 345.11,411.65 348.29,414.39 L 354.09 419.38 L 357.09 417.61 C364.68,413.12 371.26,413.66 377.66,419.28 C382.11,423.18 383.99,427.43 384.04,433.72 L 384.07 438.50 L 397.79 446.32 C405.33,450.62 416.74,457.27 423.14,461.10 L 434.79 468.08 L 439.14 465.24 C444.31,461.89 449.53,459.99 453.57,460.02 C458.49,460.04 467.10,465.07 470.47,469.86 C473.24,473.81 473.50,474.87 473.45,482.06 C473.42,486.67 473.84,490.11 474.45,490.35 C476.64,491.21 509.33,516.16 520.17,525.24 C526.40,530.47 534.76,538.17 538.75,542.37 C542.73,546.57 546.18,550.00 546.42,550.00 C546.65,550.00 546.44,548.54 545.95,546.75 C545.46,544.96 543.69,534.95 542.01,524.50 C538.32,501.50 533.30,470.80 532.45,466.00 C529.84,451.17 526.84,428.27 527.17,425.62 C528.00,418.90 531.68,424.79 533.96,436.50 C534.61,439.80 535.72,444.52 536.44,447.00 C538.90,455.49 546.46,489.73 547.44,496.79 C547.77,499.16 548.45,501.86 548.96,502.79 C549.94,504.60 551.83,515.09 555.03,536.50 C556.09,543.65 557.05,549.72 557.16,550.00 C557.27,550.28 557.67,543.75 558.05,535.50 C558.43,527.25 559.52,509.48 560.47,496.00 C561.41,482.52 562.31,468.58 562.45,465.00 C562.60,461.42 562.99,456.02 563.32,453.00 C563.64,449.98 564.50,441.57 565.21,434.33 C565.92,427.08 566.80,420.85 567.17,420.49 C567.54,420.12 568.66,421.08 569.67,422.62 C571.42,425.30 571.51,433.33 571.83,616.46 C572.02,721.53 571.87,811.21 571.50,815.75 C570.93,822.68 570.54,824.00 569.07,824.00 C567.72,824.00 566.85,822.14 565.23,815.75 ZM 336.28 517.25 C339.14,514.66 352.95,514.74 355.86,517.37 C358.08,519.38 359.15,519.02 383.00,508.27 C386.02,506.90 392.55,504.02 397.50,501.85 C407.03,497.69 407.57,497.44 421.25,491.13 L 430.00 487.09 L 430.00 481.61 C430.00,475.22 430.39,475.59 414.00,466.47 C408.23,463.26 402.15,459.71 400.50,458.57 C398.85,457.44 393.25,453.95 388.05,450.83 L 378.61 445.16 L 374.84 447.08 C369.62,449.74 363.32,449.54 357.66,446.53 C353.22,444.17 352.82,444.13 348.26,445.51 C345.64,446.31 337.42,448.78 330.00,451.01 C322.58,453.23 313.80,455.92 310.50,456.99 C307.20,458.05 296.40,461.01 286.50,463.56 C276.60,466.12 265.12,469.24 261.00,470.50 L 253.50 472.79 L 253.20 476.84 C252.89,480.85 252.95,480.92 258.20,483.33 C261.11,484.67 270.92,489.37 280.00,493.77 C299.77,503.36 314.70,510.38 321.50,513.27 C324.25,514.44 327.85,516.21 329.50,517.20 C333.22,519.43 333.87,519.43 336.28,517.25 ZM 256.75 462.04 C262.28,460.15 282.06,454.64 309.50,447.35 C316.65,445.45 328.24,442.07 335.25,439.83 C347.58,435.90 348.00,435.67 348.00,432.96 C348.00,431.42 348.25,429.50 348.56,428.69 C349.10,427.29 341.50,420.55 324.00,406.90 C320.76,404.37 316.59,401.00 314.73,399.40 C312.87,397.81 309.61,395.15 307.48,393.50 C305.36,391.85 301.91,389.08 299.82,387.34 C293.42,382.01 290.21,380.44 269.50,372.49 C258.50,368.27 244.60,362.83 238.61,360.40 L 227.71 355.97 L 223.70 359.95 C221.49,362.13 218.24,364.61 216.47,365.45 L 213.25 366.98 L 215.07 377.24 C216.07,382.88 217.37,389.08 217.96,391.00 C218.55,392.92 219.72,398.33 220.58,403.00 C221.43,407.67 222.49,413.30 222.94,415.50 C225.06,425.90 228.93,445.89 229.49,449.30 C229.87,451.61 230.78,453.32 231.81,453.65 C238.89,455.91 244.17,458.57 246.56,461.07 C248.11,462.68 249.74,464.00 250.18,464.00 C250.63,464.00 253.58,463.12 256.75,462.04 ZM 288.00 344.44 C288.00,331.48 287.66,321.04 287.25,321.24 C284.89,322.36 279.74,324.65 264.33,331.42 C254.89,335.57 243.82,340.54 239.74,342.48 C235.67,344.42 231.80,346.00 231.16,346.00 C225.82,346.00 241.82,352.78 267.00,361.18 C274.98,363.84 282.17,366.44 283.00,366.95 C283.83,367.46 285.29,367.91 286.25,367.94 C287.87,368.00 288.00,366.23 288.00,344.44 ZM 600.68 821.80 C598.13,811.37 597.84,788.26 598.38,639.50 C598.91,496.32 599.85,432.42 601.55,424.25 C602.33,420.53 604.73,419.91 605.44,423.25 C606.47,428.07 608.66,452.41 609.96,473.50 C610.54,482.85 611.52,496.35 612.13,503.50 C612.74,510.65 613.32,521.45 613.42,527.50 C613.81,550.47 614.17,556.58 615.00,554.00 C615.44,552.62 615.85,549.15 615.90,546.28 C615.96,543.42 616.63,539.14 617.41,536.78 C618.19,534.43 619.12,530.47 619.49,528.00 C619.86,525.53 621.52,516.97 623.17,509.00 C624.83,501.02 627.01,490.45 628.03,485.50 C629.04,480.55 630.80,472.67 631.94,468.00 C633.08,463.33 634.70,455.67 635.55,451.00 C636.39,446.33 637.50,441.15 638.01,439.50 C638.52,437.85 639.76,433.58 640.75,430.01 C642.03,425.40 643.08,423.42 644.38,423.17 C646.08,422.84 646.15,423.46 645.48,432.66 C645.09,438.07 644.41,442.95 643.99,443.50 C643.56,444.05 642.69,449.45 642.06,455.50 C641.43,461.55 640.70,467.24 640.42,468.14 C639.83,470.12 636.53,491.25 634.43,506.50 C633.59,512.55 632.55,518.17 632.11,519.00 C631.67,519.83 630.72,525.00 629.99,530.50 C629.26,536.00 628.26,541.04 627.75,541.70 C627.25,542.36 627.12,543.79 627.46,544.87 C627.80,545.95 627.61,547.12 627.04,547.47 C626.47,547.83 626.00,548.83 626.00,549.70 C626.00,550.65 628.93,548.45 633.25,544.26 C640.60,537.14 649.16,529.89 681.02,503.83 C687.35,498.64 694.02,493.31 695.82,491.97 C699.08,489.57 699.10,489.48 698.46,483.43 C697.77,477.05 699.25,472.59 703.73,467.48 C708.36,462.20 712.21,460.50 719.59,460.50 C725.85,460.50 727.29,460.88 731.90,463.75 C734.78,465.54 737.56,467.00 738.09,467.00 C738.61,467.00 740.88,465.84 743.12,464.42 C745.36,463.01 749.29,460.70 751.85,459.29 C754.41,457.89 764.04,452.46 773.25,447.23 L 790.00 437.72 L 790.00 433.48 C790.00,420.73 801.19,411.84 812.84,415.34 C814.85,415.95 817.09,417.02 817.82,417.72 C818.55,418.42 819.52,419.00 819.98,419.00 C820.44,419.00 824.39,415.96 828.76,412.25 C833.12,408.54 842.26,401.00 849.06,395.50 C855.85,390.00 864.47,382.87 868.21,379.66 L 875.00 373.82 L 875.00 347.92 L 875.00 322.03 L 871.25 319.63 C869.19,318.31 866.29,315.94 864.81,314.36 C862.15,311.54 852.00,295.21 852.00,293.75 C852.00,293.34 853.66,293.00 855.68,293.00 C857.70,293.00 860.85,292.46 862.68,291.80 C867.67,289.99 877.65,291.97 883.35,295.90 C889.26,299.97 892.15,304.17 892.76,309.59 C893.04,312.02 893.70,314.00 894.23,314.00 C895.38,314.00 918.04,323.90 919.50,325.03 C920.05,325.46 924.33,327.41 929.00,329.35 C933.67,331.30 939.39,333.81 941.70,334.94 C944.01,336.07 946.26,336.99 946.70,336.97 C947.14,336.96 948.62,335.10 950.00,332.85 C951.38,330.59 954.30,327.57 956.50,326.13 C960.07,323.79 961.48,323.51 969.50,323.50 C978.07,323.50 978.72,323.66 983.00,326.75 C990.19,331.95 992.27,335.82 992.73,344.81 C993.04,350.85 992.73,353.25 991.31,355.97 C988.98,360.45 981.94,365.76 976.37,367.24 C971.99,368.42 971.36,369.21 970.46,374.65 C968.96,383.76 966.78,393.77 965.92,395.51 C965.37,396.62 964.29,400.90 963.53,405.01 C962.77,409.13 961.95,413.40 961.70,414.50 C961.45,415.60 960.46,421.23 959.48,427.00 C958.50,432.77 957.32,437.93 956.85,438.45 C956.38,438.97 955.99,441.00 955.98,442.95 C955.96,444.90 955.54,448.29 955.03,450.47 C954.52,452.66 954.27,454.61 954.47,454.80 C954.67,455.00 962.51,448.55 971.89,440.48 C986.50,427.90 988.82,425.52 987.98,423.96 C986.55,421.29 986.78,414.31 988.41,411.20 C991.31,405.65 999.58,400.00 1004.81,400.00 C1007.28,400.00 1012.90,402.75 1015.85,405.39 C1023.79,412.53 1022.17,426.40 1012.81,431.23 C1009.02,433.19 1000.67,434.02 997.98,432.71 C996.91,432.18 993.25,434.82 985.44,441.73 C979.38,447.10 971.63,453.91 968.23,456.85 L 962.05 462.20 L 963.71 465.35 C964.62,467.08 965.50,469.17 965.67,470.00 C967.01,476.47 967.10,479.18 966.00,480.50 C964.12,482.77 965.43,484.65 971.21,488.00 C974.12,489.69 981.22,494.19 987.00,498.01 C992.78,501.83 1003.35,508.65 1010.50,513.17 C1017.65,517.69 1024.93,522.45 1026.68,523.76 C1029.50,525.87 1030.29,526.01 1033.68,525.07 C1048.18,521.04 1059.24,528.92 1057.67,542.15 C1056.55,551.58 1049.05,556.74 1037.92,555.73 C1027.40,554.77 1022.39,548.46 1023.18,537.16 L 1023.50 532.57 L 1017.00 528.37 C993.92,513.49 987.21,509.18 983.11,506.63 C980.57,505.05 974.52,501.07 969.65,497.78 L 960.80 491.79 L 956.22 494.14 C952.57,496.02 950.10,496.49 944.07,496.46 C936.55,496.43 932.41,494.95 926.91,490.32 C925.55,489.18 923.96,489.65 915.91,493.57 C902.48,500.13 887.19,507.32 849.25,524.91 C846.32,526.27 846.00,526.84 846.00,530.75 C846.00,537.83 841.51,544.71 835.36,547.05 C831.28,548.61 821.84,548.17 818.03,546.25 C812.55,543.49 808.95,537.52 809.20,531.59 L 809.40 526.69 L 801.95 523.75 C797.85,522.14 792.03,519.67 789.00,518.26 C785.97,516.85 780.80,514.48 777.50,512.99 C774.20,511.50 769.47,509.35 767.00,508.21 C764.53,507.08 757.01,503.64 750.29,500.57 L 738.09 494.99 L 733.45 497.93 L 728.81 500.87 L 728.69 513.19 C728.63,519.96 728.67,534.52 728.79,545.55 L 729.00 565.60 L 732.50 566.86 C737.40,568.64 741.27,572.15 743.55,576.91 L 745.50 580.98 L 755.50 581.00 C767.78,581.03 770.01,581.55 769.97,584.37 C769.89,589.36 768.84,589.69 747.74,591.45 C746.23,591.58 744.86,591.86 744.70,592.09 C740.67,597.91 738.04,600.48 734.63,601.93 C727.50,604.96 723.90,605.06 717.41,602.42 C714.16,601.09 711.38,600.01 711.24,600.00 C710.87,600.00 688.72,620.19 680.60,627.92 C646.44,660.50 631.58,679.52 624.07,700.26 C621.79,706.56 620.29,721.00 621.91,721.00 C622.51,721.00 623.00,720.53 623.00,719.95 C623.00,716.07 644.59,691.60 654.50,684.24 C656.15,683.02 659.30,680.60 661.50,678.87 C685.60,659.92 721.55,644.19 751.72,639.41 C770.46,636.44 778.79,635.99 824.50,635.53 C879.55,634.97 887.89,634.37 909.50,629.41 C927.96,625.17 947.35,616.12 960.91,605.39 C965.35,601.88 969.45,599.00 970.00,599.00 C975.01,599.00 959.03,621.14 947.06,630.78 C930.85,643.84 903.16,653.44 874.50,655.93 C868.45,656.45 849.10,657.15 831.50,657.48 C769.87,658.64 743.11,663.71 709.58,680.58 C677.09,696.94 650.64,721.66 631.66,753.41 C625.22,764.19 616.00,783.66 616.00,786.49 C616.00,787.32 615.62,788.00 615.16,788.00 C614.70,788.00 613.75,790.59 613.05,793.75 C612.35,796.91 611.44,799.95 611.02,800.50 C610.60,801.05 609.70,803.97 609.02,807.00 C605.73,821.55 602.17,827.87 600.68,821.80 ZM 636.12 650.40 C649.45,637.51 661.79,626.28 671.50,618.20 C676.45,614.08 685.73,606.26 692.12,600.82 L 703.75 590.94 L 703.25 586.54 C702.59,580.71 705.78,574.12 711.61,569.25 L 716.00 565.58 L 716.00 533.04 L 715.99 500.50 L 711.74 498.75 C709.39,497.79 707.19,497.00 706.83,497.00 C706.47,497.00 702.88,499.71 698.84,503.02 C694.80,506.34 688.80,511.25 685.50,513.95 C664.74,530.92 658.44,536.43 649.49,545.43 C637.75,557.24 635.75,559.63 627.90,571.21 L 622.00 579.92 L 622.00 622.69 L 622.00 665.46 L 624.87 661.98 C626.45,660.07 631.51,654.85 636.12,650.40 ZM 818.49 516.87 C821.56,515.06 823.21,514.81 829.51,515.22 C833.59,515.48 837.64,516.29 838.51,517.01 C840.23,518.43 839.14,518.91 884.88,496.83 C896.10,491.43 905.45,487.00 905.66,487.00 C905.88,487.00 909.46,485.38 913.62,483.41 C920.22,480.28 921.11,479.54 920.61,477.66 C920.29,476.47 920.02,474.83 920.01,474.00 C920.00,472.98 917.33,471.74 911.74,470.14 C907.21,468.85 901.47,467.13 899.00,466.33 C894.84,464.98 884.06,461.79 850.50,451.98 C843.35,449.89 834.46,447.22 830.74,446.04 L 823.97 443.91 L 817.49 447.00 C810.54,450.32 807.02,450.38 800.33,447.30 C797.20,445.87 796.96,445.96 784.33,453.09 C773.01,459.48 753.20,470.27 749.00,472.34 C743.00,475.29 742.73,475.66 742.80,480.91 C742.84,483.71 742.90,486.36 742.93,486.80 C742.97,487.24 744.69,488.21 746.75,488.95 C748.81,489.69 753.65,491.79 757.50,493.60 C767.03,498.09 786.09,506.65 794.00,509.99 C797.58,511.50 803.42,514.11 807.00,515.78 C810.58,517.46 813.81,518.87 814.19,518.91 C814.57,518.96 816.51,518.04 818.49,516.87 ZM 926.76 460.96 C928.45,459.09 931.95,457.08 935.90,455.71 C939.43,454.50 942.64,452.83 943.05,452.00 C943.46,451.17 945.23,443.52 947.00,435.00 C948.77,426.48 950.47,418.83 950.78,418.00 C951.10,417.17 951.88,413.80 952.53,410.50 C954.15,402.27 959.71,376.39 960.91,371.53 C961.45,369.34 961.80,367.51 961.69,367.46 C956.76,364.92 951.71,361.45 950.24,359.58 L 948.33 357.15 L 938.42 360.65 C886.11,379.10 884.55,379.78 873.76,388.76 C869.22,392.55 861.45,398.75 856.50,402.56 C851.55,406.36 846.99,409.92 846.38,410.48 C845.76,411.04 840.91,414.88 835.61,419.00 C827.96,424.95 826.07,426.91 826.47,428.50 C826.75,429.60 826.98,431.70 826.99,433.17 C827.00,436.40 826.79,436.32 856.00,444.45 C860.67,445.76 866.97,447.50 870.00,448.34 C873.03,449.17 876.80,450.35 878.38,450.95 C879.97,451.56 883.34,452.50 885.88,453.04 C888.42,453.59 891.40,454.43 892.50,454.92 C893.60,455.41 898.94,457.02 904.36,458.50 C909.79,459.97 915.86,461.79 917.86,462.52 C923.09,464.44 923.73,464.33 926.76,460.96 ZM 891.10 367.92 C892.97,367.32 895.40,366.42 896.50,365.92 C897.60,365.42 903.45,363.28 909.50,361.16 C926.03,355.39 946.00,347.64 946.00,347.00 C946.00,346.47 943.30,345.18 936.50,342.47 C934.85,341.81 930.27,339.68 926.32,337.73 C922.38,335.78 918.10,333.85 916.82,333.44 C915.55,333.04 910.90,331.02 906.50,328.97 C893.18,322.74 887.97,320.69 887.25,321.41 C886.32,322.35 886.03,369.00 886.96,369.00 C887.37,369.00 889.23,368.51 891.10,367.92 ZM 307.85 705.52 C307.65,705.32 302.55,704.70 296.50,704.13 C285.58,703.10 269.48,699.78 257.00,695.99 C253.43,694.91 247.24,693.10 243.25,691.97 C239.03,690.77 236.00,689.37 236.00,688.62 C236.00,687.85 238.35,686.80 241.75,686.05 C244.91,685.36 248.62,684.41 250.00,683.95 C262.75,679.68 290.45,677.30 303.50,679.35 C305.70,679.69 311.10,680.47 315.50,681.07 C321.99,681.95 368.58,690.83 380.50,693.45 C382.15,693.81 387.33,694.94 392.00,695.95 C396.67,696.96 404.95,698.96 410.38,700.40 C415.81,701.83 420.42,703.00 420.63,703.00 C420.83,703.00 421.00,703.69 421.00,704.53 C421.00,705.89 414.60,706.05 364.60,705.97 C333.59,705.92 308.05,705.71 307.85,705.52 ZM 752.00 704.50 C752.00,703.67 752.20,703.00 752.45,703.00 C752.70,703.00 755.51,702.31 758.70,701.46 C767.19,699.21 776.21,697.33 797.50,693.38 C817.74,689.63 819.70,689.26 836.00,686.05 C874.13,678.53 884.92,677.32 899.09,678.95 C908.92,680.09 912.34,680.74 928.75,684.58 C938.26,686.81 938.39,686.84 939.47,686.92 C942.20,687.14 935.57,690.90 929.00,692.87 C924.88,694.11 920.60,695.52 919.50,696.01 C917.85,696.75 903.63,700.31 893.00,702.64 C880.00,705.50 869.26,705.94 811.75,705.97 C759.29,706.00 752.00,705.82 752.00,704.50 ZM 978.00 673.88 C966.46,673.49 956.49,672.60 951.50,671.51 C944.67,670.03 925.12,663.80 915.67,660.10 C912.36,658.80 912.59,656.62 916.08,656.22 C917.41,656.07 922.33,654.96 927.00,653.76 C936.63,651.28 946.37,651.00 973.02,652.42 C1001.81,653.95 1024.92,648.71 1045.00,636.12 C1057.73,628.13 1068.27,616.52 1074.42,603.72 C1078.78,594.64 1080.11,589.07 1080.88,576.53 L 1081.50 566.56 L 1085.00 565.51 C1089.83,564.06 1096.71,560.32 1101.37,556.61 C1111.71,548.37 1122.39,531.84 1124.87,520.20 C1127.48,507.96 1125.51,489.17 1120.47,478.15 C1114.08,464.19 1098.89,449.35 1086.38,444.82 C1082.39,443.38 1082.00,440.91 1084.86,435.21 C1089.68,425.63 1090.93,407.62 1087.56,396.50 C1080.53,373.30 1061.39,355.32 1037.50,349.49 C1033.65,348.54 1030.09,347.39 1029.59,346.93 C1029.05,346.42 1029.46,343.33 1030.59,339.29 C1033.33,329.55 1033.16,313.59 1030.24,305.65 C1024.41,289.84 1008.67,274.90 993.05,270.36 C990.00,269.48 986.44,268.26 985.15,267.65 C983.86,267.05 978.23,266.55 972.65,266.54 C954.47,266.50 942.40,272.36 936.44,284.12 C931.99,292.89 930.76,291.74 932.16,280.12 C933.85,266.19 931.37,256.79 922.75,244.37 C913.22,230.62 898.06,221.33 878.07,217.00 C873.91,216.09 870.21,214.70 869.66,213.83 C868.97,212.72 869.47,209.75 871.37,203.63 C873.78,195.92 874.32,195.00 876.47,195.00 C877.80,195.00 879.16,195.45 879.50,196.00 C879.84,196.55 881.57,197.00 883.35,197.00 C888.24,197.00 904.25,202.52 914.08,207.60 C920.22,210.77 925.40,214.52 931.45,220.18 C940.57,228.72 943.98,233.07 948.54,242.00 C950.09,245.02 951.46,247.65 951.59,247.83 C951.72,248.02 955.58,247.40 960.17,246.46 C969.75,244.49 984.22,244.93 994.91,247.50 C1002.40,249.31 1016.28,255.61 1021.70,259.66 C1023.79,261.22 1026.13,262.95 1026.89,263.50 C1027.66,264.05 1031.19,267.42 1034.73,271.00 C1041.62,277.95 1049.38,290.03 1052.71,299.00 C1055.63,306.87 1058.37,323.26 1057.65,328.54 L 1057.04 332.96 L 1062.77 335.64 C1076.53,342.06 1091.88,355.00 1098.80,366.00 C1104.83,375.59 1109.74,388.08 1110.72,396.28 C1111.03,398.91 1111.67,401.30 1112.14,401.59 C1113.55,402.46 1113.11,416.24 1111.41,424.47 C1110.54,428.70 1109.97,432.25 1110.16,432.37 C1127.47,443.30 1136.59,454.34 1145.36,475.00 C1149.45,484.62 1151.70,507.21 1149.76,519.00 C1146.64,537.93 1139.07,552.66 1125.39,566.42 C1120.56,571.28 1108.16,580.00 1106.07,580.00 C1104.94,580.00 1104.93,580.04 1104.43,584.00 C1102.26,601.22 1098.01,613.23 1089.60,625.91 C1084.24,633.99 1068.82,650.00 1066.40,650.00 C1066.06,650.00 1064.15,651.27 1062.14,652.81 C1056.35,657.29 1043.12,663.68 1031.87,667.44 C1022.50,670.57 1017.43,671.64 1001.50,673.82 C998.75,674.19 988.17,674.22 978.00,673.88 ZM 160.27 671.99 C116.58,664.15 81.00,635.26 71.60,600.00 C70.80,596.97 69.63,591.29 69.00,587.37 C67.87,580.32 67.81,580.22 63.68,578.37 C48.46,571.56 33.01,551.79 26.15,530.36 C21.45,515.68 21.04,502.92 24.74,486.43 C29.06,467.15 42.70,446.96 59.60,434.82 C62.45,432.77 63.86,431.09 63.56,430.07 C61.29,422.41 60.78,417.90 61.33,410.16 C63.69,377.01 82.45,350.12 113.64,335.19 L 117.78 333.21 L 118.21 321.86 C118.53,313.62 119.25,308.78 120.84,304.23 C128.74,281.65 140.20,267.91 162.00,254.85 C171.17,249.36 188.93,244.98 201.86,245.02 C208.61,245.05 211.51,245.43 220.73,247.52 C222.62,247.95 223.40,247.16 225.87,242.26 C231.86,230.42 244.46,216.67 254.00,211.56 C265.99,205.15 270.71,202.93 276.17,201.15 C284.82,198.33 299.13,194.80 299.68,195.35 C300.41,196.08 304.78,209.43 305.16,212.07 C305.46,214.19 304.93,214.66 301.00,215.78 C280.35,221.65 271.07,225.97 260.68,234.54 C257.00,237.57 254.00,240.45 254.00,240.95 C254.00,241.45 253.42,242.45 252.72,243.18 C250.24,245.73 247.00,252.15 244.32,259.79 C242.04,266.29 241.64,268.95 241.80,276.75 C241.97,284.97 241.80,286.00 240.24,286.00 C239.24,286.00 237.35,284.13 235.85,281.63 C232.44,275.98 227.98,272.65 219.41,269.34 C213.44,267.02 211.07,266.66 202.00,266.71 C189.56,266.76 182.79,268.74 170.61,275.88 C158.63,282.90 146.11,298.42 144.46,308.30 C144.07,310.61 143.25,312.82 142.64,313.21 C140.75,314.40 141.21,332.84 143.24,337.10 C144.18,339.08 145.08,342.20 145.23,344.03 C145.49,347.19 145.27,347.43 141.00,348.66 C134.02,350.67 122.87,355.23 119.00,357.67 C108.68,364.16 96.38,376.11 94.33,381.64 C93.96,382.66 93.37,383.73 93.04,384.00 C91.92,384.93 87.05,398.48 86.39,402.50 C86.03,404.70 85.31,407.04 84.78,407.71 C82.47,410.62 85.59,427.91 89.97,436.46 C91.09,438.64 92.00,440.99 92.00,441.68 C92.00,442.37 89.47,444.10 86.38,445.51 C72.50,451.86 59.79,464.70 53.27,478.95 C45.90,495.09 44.35,510.93 48.95,523.20 C51.36,529.60 57.11,540.55 60.51,545.21 C66.27,553.07 78.45,561.85 89.25,565.92 C92.00,566.95 92.00,566.95 92.00,577.01 C92.00,583.68 92.50,588.27 93.50,590.65 C94.32,592.63 95.00,595.01 95.00,595.94 C95.00,598.15 100.16,608.20 103.68,612.85 C105.20,614.86 109.87,619.88 114.06,624.00 C136.40,646.02 172.95,655.98 216.67,651.98 C230.55,650.71 231.59,650.75 243.31,652.97 C250.01,654.24 257.20,655.55 259.29,655.89 C261.37,656.23 263.12,656.95 263.18,657.50 C263.49,660.56 234.84,669.18 211.88,672.92 C201.27,674.65 172.17,674.13 160.27,671.99 ZM 340.46 602.12 C336.01,600.10 332.04,595.92 330.09,591.22 C328.72,587.92 328.45,587.78 313.50,582.99 C301.23,579.07 289.36,572.79 277.50,563.97 C267.21,556.31 262.49,551.64 263.45,550.08 C264.54,548.31 265.62,548.73 275.96,554.98 C290.79,563.94 307.94,571.66 318.07,573.94 C321.06,574.61 325.09,575.75 327.03,576.48 C330.52,577.79 330.60,577.76 333.85,573.89 C338.02,568.92 343.71,566.00 349.22,566.00 C356.10,566.00 364.70,571.44 366.87,577.17 C367.72,579.39 368.61,579.78 374.06,580.35 C377.49,580.71 381.80,581.00 383.65,581.00 C387.50,581.00 387.47,580.93 385.55,585.53 L 384.10 589.00 L 376.57 589.00 L 369.04 589.00 L 367.13 592.75 C362.24,602.32 350.20,606.55 340.46,602.12 ZM 816.74 602.08 C811.72,599.74 808.06,596.24 806.30,592.12 L 804.86 588.74 L 790.62 589.44 L 776.38 590.15 L 776.15 585.69 C775.87,580.19 775.97,580.15 792.81,579.94 L 805.11 579.78 L 807.52 575.97 C814.99,564.13 830.12,562.60 839.83,572.70 C843.09,576.09 844.70,577.07 846.33,576.68 C856.34,574.28 869.86,569.67 874.93,566.95 C875.79,566.48 879.42,564.87 883.00,563.35 C886.58,561.84 893.84,557.99 899.15,554.80 C909.08,548.83 910.45,548.30 911.49,549.99 C912.47,551.57 900.60,562.35 891.00,568.61 C884.98,572.53 867.62,581.00 865.61,581.00 C864.72,581.00 864.00,581.38 864.00,581.86 C864.00,582.33 860.29,583.54 855.75,584.55 C851.21,585.56 847.16,586.47 846.75,586.57 C846.34,586.67 845.55,586.81 845.00,586.88 C844.45,586.94 844.00,588.06 844.00,589.35 C844.00,590.64 842.67,593.54 841.04,595.79 C835.69,603.17 825.00,605.94 816.74,602.08 ZM 394.47 391.23 C393.32,390.42 387.46,374.24 385.50,366.50 C384.80,363.75 382.64,356.73 380.69,350.90 C378.74,345.07 376.83,338.55 376.44,336.40 C376.06,334.26 375.41,332.05 375.01,331.50 C374.61,330.95 373.98,329.15 373.61,327.50 C372.94,324.50 366.45,303.34 363.03,293.00 C362.03,289.98 360.92,286.15 360.55,284.50 C359.94,281.71 358.37,276.53 348.43,244.50 C346.38,237.90 344.14,230.25 343.44,227.50 C341.33,219.18 338.29,207.93 335.99,200.00 C334.80,195.88 332.78,188.23 331.50,183.00 C329.25,173.82 322.27,148.16 320.07,141.01 C318.71,136.56 318.70,133.00 320.05,133.00 C320.63,133.00 327.72,137.35 335.80,142.67 C355.57,155.67 383.26,174.19 384.50,175.24 C385.29,175.91 397.80,184.25 408.00,190.92 C421.83,199.95 438.79,211.12 443.50,214.30 C446.80,216.52 456.92,223.28 466.00,229.32 C514.45,261.56 551.78,286.53 562.00,293.54 C580.59,306.28 586.34,310.00 587.45,310.00 C588.03,309.99 595.92,304.98 605.00,298.85 C637.43,276.96 725.22,218.61 744.00,206.47 C747.58,204.16 761.97,194.70 776.00,185.45 C790.03,176.21 811.40,162.16 823.50,154.23 C835.60,146.30 847.37,138.51 849.66,136.91 C855.56,132.79 856.37,133.04 855.51,138.75 C855.12,141.36 854.46,144.18 854.04,145.00 C853.62,145.82 852.50,149.88 851.56,154.00 C850.62,158.12 849.46,162.40 848.99,163.50 C848.21,165.30 844.12,179.46 838.86,198.50 C837.80,202.35 835.63,209.77 834.04,215.00 C832.45,220.23 829.94,228.77 828.48,234.00 C825.10,246.03 820.32,261.87 813.53,283.50 C810.60,292.85 806.32,306.58 804.03,314.00 C801.73,321.42 798.77,330.88 797.45,335.00 C796.14,339.12 792.11,352.40 788.50,364.50 C784.90,376.60 781.46,387.74 780.85,389.25 L 779.76 392.00 L 587.63 391.98 C481.96,391.98 395.04,391.64 394.47,391.23 ZM 755.72 360.75 C756.26,360.06 757.40,357.25 758.25,354.50 C763.76,336.81 770.28,316.12 771.00,314.00 C771.47,312.62 773.88,304.98 776.35,297.00 C778.82,289.02 782.65,276.65 784.87,269.50 C789.61,254.20 800.25,220.48 803.50,210.50 C804.75,206.65 805.64,203.36 805.48,203.18 C805.32,203.00 800.99,205.84 795.85,209.49 C788.31,214.84 770.70,226.69 751.00,239.69 C723.89,257.57 713.44,264.64 713.17,265.25 C712.98,265.66 712.43,266.00 711.95,266.00 C711.15,266.00 702.22,271.74 701.00,273.03 C700.72,273.33 698.03,275.11 695.00,277.00 C691.97,278.89 689.28,280.67 689.00,280.97 C688.72,281.26 687.77,281.95 686.87,282.50 C683.13,284.79 607.65,335.69 597.82,342.54 L 587.14 350.00 L 583.60 347.75 C581.65,346.51 574.31,341.51 567.28,336.63 C536.24,315.07 514.85,300.54 467.50,268.80 C420.59,237.36 390.16,216.75 377.16,207.61 C374.33,205.62 371.77,204.00 371.46,204.00 C370.82,204.00 371.97,211.02 372.86,212.50 C373.19,213.05 374.20,216.20 375.11,219.50 C381.42,242.54 384.33,252.76 385.10,254.50 C385.58,255.60 386.64,258.98 387.46,262.00 C391.32,276.26 393.18,282.66 393.99,284.50 C394.47,285.60 396.52,291.90 398.53,298.50 C400.55,305.10 404.55,317.70 407.43,326.50 C410.31,335.30 413.37,344.75 414.24,347.50 L 415.81 352.50 L 417.47 348.50 C418.37,346.30 420.89,340.80 423.06,336.27 C425.23,331.74 427.00,327.82 427.00,327.55 C427.00,327.28 428.60,323.78 430.55,319.78 C432.51,315.77 436.59,306.88 439.63,300.00 C442.67,293.12 445.54,287.10 446.01,286.61 C446.50,286.11 448.50,286.99 450.69,288.68 C452.78,290.30 458.85,294.64 464.18,298.31 L 473.85 304.99 L 469.93 313.03 C467.77,317.45 466.00,321.32 466.00,321.64 C466.00,321.96 464.69,324.98 463.09,328.36 C458.51,338.00 454.00,348.01 454.00,348.51 C454.00,348.76 452.70,351.65 451.11,354.93 C449.52,358.21 448.47,361.14 448.78,361.45 C449.08,361.75 518.05,362.00 602.04,362.00 C723.03,362.00 754.96,361.74 755.72,360.75 ZM 652.70 249.21 C651.27,246.07 648.71,239.90 647.02,235.50 C645.33,231.10 643.32,226.15 642.56,224.50 C637.93,214.49 636.00,210.03 635.97,209.31 C635.95,208.87 635.06,206.70 634.00,204.50 C632.94,202.30 632.05,200.13 632.03,199.69 C632.02,199.24 630.84,196.32 629.42,193.19 C625.41,184.36 625.30,184.08 621.48,174.00 C619.50,168.77 617.24,163.08 616.44,161.35 C615.65,159.62 615.00,157.88 615.00,157.50 C615.00,156.78 614.10,154.67 609.60,144.81 C608.17,141.68 607.00,138.83 607.00,138.46 C607.00,138.10 606.36,136.38 605.58,134.65 C601.73,126.10 594.63,108.34 591.12,98.50 C586.71,86.12 587.64,85.95 582.11,100.15 C580.48,104.36 578.21,109.85 577.07,112.35 C575.93,114.85 575.00,117.18 575.00,117.53 C575.00,117.89 573.65,121.09 572.00,124.66 C570.35,128.22 569.00,131.37 569.00,131.65 C569.00,131.93 567.71,135.17 566.14,138.83 C564.56,142.50 561.15,150.68 558.55,157.00 C555.96,163.32 552.97,170.41 551.92,172.74 C550.86,175.07 550.00,177.48 550.00,178.08 C550.00,178.69 549.34,180.39 548.54,181.85 C546.97,184.70 539.00,203.55 539.00,204.42 C539.00,204.71 537.90,207.32 536.56,210.22 C535.22,213.13 531.19,222.47 527.61,230.98 C524.03,239.50 520.66,246.61 520.12,246.79 C519.13,247.12 494.08,230.45 492.84,228.63 C492.18,227.68 492.86,225.35 495.49,219.52 C496.24,217.86 498.28,213.12 500.04,209.00 C501.80,204.88 504.04,199.70 505.01,197.50 C507.29,192.39 527.09,146.03 531.50,135.50 C533.35,131.10 541.90,110.62 550.52,90.00 C559.13,69.38 568.61,46.73 571.59,39.67 C574.57,32.62 577.00,26.44 577.00,25.95 C577.00,25.46 577.87,23.13 578.94,20.78 C580.00,18.42 582.21,13.14 583.85,9.03 C585.50,4.92 587.21,1.43 587.67,1.29 C588.76,0.93 589.78,3.19 598.14,24.50 C604.86,41.61 608.58,50.82 611.48,57.50 C612.19,59.15 613.11,61.62 613.51,63.00 C613.91,64.38 614.60,65.95 615.04,66.51 C615.48,67.06 616.50,69.31 617.29,71.51 C618.70,75.37 625.14,91.42 626.92,95.50 C627.40,96.60 628.36,99.07 629.06,101.00 C630.20,104.17 631.70,107.77 635.53,116.50 C636.25,118.15 637.15,120.62 637.52,122.00 C637.90,123.38 639.02,126.30 640.00,128.50 C644.23,137.93 647.00,144.83 647.00,145.97 C647.00,146.64 647.64,148.39 648.43,149.85 C650.84,154.31 659.00,173.33 659.00,174.47 C659.00,174.87 659.64,176.62 660.43,178.35 C661.22,180.08 663.07,184.65 664.55,188.50 C666.03,192.35 667.84,196.85 668.57,198.50 C669.30,200.15 670.86,203.98 672.04,207.00 C673.22,210.02 675.08,214.75 676.18,217.50 C677.29,220.25 679.11,224.94 680.23,227.93 L 682.28 233.36 L 680.26 234.93 C679.15,235.79 674.60,239.13 670.14,242.33 C665.68,245.54 661.01,249.39 659.76,250.88 C655.97,255.38 655.47,255.26 652.70,249.21 ZM 461.69 174.98 C457.99,173.87 456.24,172.35 453.24,167.60 C451.14,164.27 450.85,162.88 451.35,158.58 C451.85,154.23 452.57,152.90 456.34,149.32 C459.15,146.64 462.08,144.89 464.46,144.44 C473.09,142.82 482.28,149.05 483.53,157.35 C484.53,164.00 483.35,167.54 478.88,171.37 C473.69,175.81 468.26,176.96 461.69,174.98 ZM 699.46 174.12 C693.64,171.48 690.00,166.77 690.00,161.89 C690.00,152.09 697.86,144.00 707.37,144.00 C712.41,144.00 719.27,148.91 721.83,154.36 C723.02,156.90 724.00,159.91 724.00,161.06 C724.00,164.87 718.14,172.01 713.31,174.08 C707.76,176.46 704.63,176.47 699.46,174.12 Z" fill="rgba(0,0,0,1)"/>
</g>
</svg>